<?xml version="1.0" encoding="UTF-8" standalone="no"?>
<!-- Created with Inkscape (http://www.inkscape.org/) -->

<svg
   xmlns:dc="http://purl.org/dc/elements/1.1/"
   xmlns:cc="http://creativecommons.org/ns#"
   xmlns:rdf="http://www.w3.org/1999/02/22-rdf-syntax-ns#"
   xmlns:svg="http://www.w3.org/2000/svg"
   xmlns="http://www.w3.org/2000/svg"
   xmlns:sodipodi="http://sodipodi.sourceforge.net/DTD/sodipodi-0.dtd"
   xmlns:inkscape="http://www.inkscape.org/namespaces/inkscape"
   width="1138.5254"
   height="682.15552"
   id="svg2"
   version="1.1"
   inkscape:version="0.48.4 r9939"
   sodipodi:docname="logo.svg"
   inkscape:export-filename="/home/mahogny/javaproj/synthbio/logo/logo_512.png"
   inkscape:export-xdpi="43.529999"
   inkscape:export-ydpi="43.529999">
  <defs
     id="defs4">
    <filter
       inkscape:collect="always"
       id="filter3862"
       color-interpolation-filters="sRGB">
      <feGaussianBlur
         inkscape:collect="always"
         stdDeviation="9.4926347"
         id="feGaussianBlur3864" />
    </filter>
  </defs>
  <sodipodi:namedview
     id="base"
     pagecolor="#ffffff"
     bordercolor="#666666"
     borderopacity="1.0"
     inkscape:pageopacity="0.0"
     inkscape:pageshadow="2"
     inkscape:zoom="0.49497475"
     inkscape:cx="169.60758"
     inkscape:cy="296.9292"
     inkscape:document-units="px"
     inkscape:current-layer="layer1"
     showgrid="false"
     showguides="true"
     inkscape:guide-bbox="true"
     inkscape:window-width="1920"
     inkscape:window-height="1028"
     inkscape:window-x="0"
     inkscape:window-y="0"
     inkscape:window-maximized="1"
     fit-margin-top="40"
     fit-margin-left="40"
     fit-margin-right="40"
     fit-margin-bottom="0">
    <sodipodi:guide
       orientation="1,0"
       position="351.85927,492.17367"
       id="guide2985" />
    <sodipodi:guide
       orientation="0,1"
       position="440.75269,347.72185"
       id="guide2987" />
    <sodipodi:guide
       position="492.27047,487.12291"
       orientation="244.96199,-244.96199"
       id="guide3763" />
    <sodipodi:guide
       position="529.61189,170.38888"
       orientation="250.01275,250.01275"
       id="guide3765" />
    <sodipodi:guide
       orientation="1,0"
       position="141.75475,192.71031"
       id="guide3828" />
    <sodipodi:guide
       orientation="0,1"
       position="165.32618,205.56745"
       id="guide3830" />
  </sodipodi:namedview>
  <metadata
     id="metadata7">
    <rdf:RDF>
      <cc:Work
         rdf:about="">
        <dc:format>image/svg+xml</dc:format>
        <dc:type
           rdf:resource="http://purl.org/dc/dcmitype/StillImage" />
        <dc:title></dc:title>
      </cc:Work>
    </rdf:RDF>
  </metadata>
  <g
     inkscape:label="Layer 1"
     inkscape:groupmode="layer"
     id="layer1"
     transform="translate(0.32618146,-244.16656)">
    <g
       id="g3853"
       style="opacity:0.61160715;fill:#1a0000;fill-opacity:1;stroke:none;filter:url(#filter3862)"
       transform="translate(2.857143,32.857143)">
      <path
         style="fill:#1a0000;fill-opacity:1;stroke:none"
         d="m 153.66072,728.96937 -12.01075,52.54688 C 90.85407,728.98722 59.598999,657.44394 59.598999,578.60065 c 0,-78.17285 30.66264,-149.16931 80.696251,-201.57144 l 0,0 46.68171,11.18927 14.14213,49.55489 c -34.52003,36.84668 -55.65713,86.35279 -55.65713,140.82731 0,55.12858 21.64773,105.20106 56.90633,142.1806 z"
         id="path3847"
         inkscape:connector-curvature="0"
         sodipodi:nodetypes="ccsccccscc" />
      <path
         style="fill:#1a0000;fill-opacity:1;stroke:none"
         d="m 198.26209,377.41159 12.87944,50.3386 c 36.79769,-34.26165 86.147,-55.22066 140.39155,-55.22066 56.80128,0 108.23498,22.98131 145.51028,60.15311 l 60.69991,-60.72871 c -52.81234,-52.70147 -125.70584,-85.28737 -206.21019,-85.28737 -77.9652,0 -148.79209,30.56276 -201.15347,80.3611 z"
         id="path3849"
         inkscape:connector-curvature="0"
         sodipodi:nodetypes="ccsccscc" />
      <path
         sodipodi:nodetypes="ccsccscc"
         inkscape:connector-curvature="0"
         id="path3851"
         d="m 165.85433,741.19209 45.2872,-11.59308 c 36.79769,34.26165 86.147,55.22066 140.39155,55.22066 56.80128,0 108.23498,-22.98131 145.51028,-60.15311 l 60.69991,60.72871 c -52.81234,52.70147 -125.70584,85.28737 -206.21019,85.28737 -77.9652,0 -148.79209,-30.56276 -201.15347,-80.3611 z"
         style="fill:#1a0000;fill-opacity:1;stroke:none" />
    </g>
    <path
       style="fill:#44aa00;fill-opacity:1;stroke:#000000;stroke-width:5;stroke-miterlimit:4;stroke-opacity:1;stroke-dasharray:none;stroke-dashoffset:0"
       d="m 153.66072,728.96937 -12.01075,52.54688 C 90.85407,728.98722 59.598999,657.44394 59.598999,578.60065 c 0,-78.17285 30.66264,-149.16931 80.696251,-201.57144 l 0,0 46.68171,11.18927 14.14213,49.55489 c -34.52003,36.84668 -55.65713,86.35279 -55.65713,140.82731 0,55.12858 21.64773,105.20106 56.90633,142.1806 z"
       id="path3807"
       inkscape:connector-curvature="0"
       sodipodi:nodetypes="ccsccccscc" />
    <path
       style="fill:#ce0000;fill-opacity:1;stroke:#000000;stroke-width:5;stroke-miterlimit:4;stroke-opacity:1;stroke-dasharray:none;stroke-dashoffset:0"
       d="m 198.26209,377.41159 12.87944,50.3386 c 36.79769,-34.26165 86.147,-55.22066 140.39155,-55.22066 56.80128,0 108.23498,22.98131 145.51028,60.15311 l 60.69991,-60.72871 c -52.81234,-52.70147 -125.70584,-85.28737 -206.21019,-85.28737 -77.9652,0 -148.79209,30.56276 -201.15347,80.3611 z"
       id="path2991"
       inkscape:connector-curvature="0"
       sodipodi:nodetypes="ccsccscc" />
    <path
       sodipodi:nodetypes="ccsccscc"
       inkscape:connector-curvature="0"
       id="path3804"
       d="m 165.85433,741.19209 45.2872,-11.59308 c 36.79769,34.26165 86.147,55.22066 140.39155,55.22066 56.80128,0 108.23498,-22.98131 145.51028,-60.15311 l 60.69991,60.72871 c -52.81234,52.70147 -125.70584,85.28737 -206.21019,85.28737 -77.9652,0 -148.79209,-30.56276 -201.15347,-80.3611 z"
       style="fill:#44aadd;fill-opacity:1;stroke:#000000;stroke-width:5;stroke-miterlimit:4;stroke-opacity:1;stroke-dasharray:none;stroke-dashoffset:0" />
    <text
       xml:space="preserve"
       style="font-size:40px;font-style:normal;font-weight:normal;line-height:125%;letter-spacing:0px;word-spacing:0px;fill:#000000;fill-opacity:1;stroke:none;font-family:Sans"
       x="294"
       y="630.36218"
       id="text3866"
       sodipodi:linespacing="125%"><tspan
         sodipodi:role="line"
         id="tspan3868"
         x="294"
         y="630.36218"
         style="font-size:200px;font-style:normal;font-variant:normal;font-weight:bold;font-stretch:normal;font-family:Arial;-inkscape-font-specification:Arial">ollagene</tspan></text>
  </g>
</svg>
