/* XPM */
static char * labstory_xpm[] = {
"32 32 266 2",
"  	c None",
". 	c #040404",
"+ 	c #040000",
"@ 	c #970000",
"# 	c #8E0000",
"$ 	c #0C0C0C",
"% 	c #020202",
"& 	c #470000",
"* 	c #B80000",
"= 	c #B60000",
"- 	c #B50000",
"; 	c #B20000",
"> 	c #A20000",
", 	c #920000",
"' 	c #890000",
") 	c #111111",
"! 	c #070000",
"~ 	c #AE0000",
"{ 	c #B70000",
"] 	c #B30000",
"^ 	c #B00000",
"/ 	c #AC0000",
"( 	c #A90000",
"_ 	c #9C0000",
": 	c #860000",
"< 	c #141414",
"[ 	c #560000",
"} 	c #B40000",
"| 	c #B10000",
"1 	c #AF0000",
"2 	c #AD0000",
"3 	c #AB0000",
"4 	c #A70000",
"5 	c #A60000",
"6 	c #A40000",
"7 	c #A10000",
"8 	c #950000",
"9 	c #880000",
"0 	c #830000",
"a 	c #101010",
"b 	c #0C0000",
"c 	c #AA0000",
"d 	c #A80000",
"e 	c #A50000",
"f 	c #A30000",
"g 	c #9F0000",
"h 	c #9D0000",
"i 	c #9B0000",
"j 	c #990000",
"k 	c #8C0000",
"l 	c #7B0101",
"m 	c #121212",
"n 	c #000000",
"o 	c #640000",
"p 	c #A00000",
"q 	c #9E0000",
"r 	c #9A0000",
"s 	c #7A1616",
"t 	c #060606",
"u 	c #120000",
"v 	c #B30505",
"w 	c #DCBABA",
"x 	c #DAB6B6",
"y 	c #C77676",
"z 	c #B93737",
"A 	c #A90404",
"B 	c #8C0101",
"C 	c #704B4B",
"D 	c #0F0F0F",
"E 	c #730000",
"F 	c #C76262",
"G 	c #F0F0F0",
"H 	c #E7E7E7",
"I 	c #E5E5E5",
"J 	c #E4E4E4",
"K 	c #DCD4D4",
"L 	c #C89898",
"M 	c #B85D5D",
"N 	c #AA2020",
"O 	c #980000",
"P 	c #960000",
"Q 	c #7A1212",
"R 	c #693E3E",
"S 	c #080808",
"T 	c #1A0000",
"U 	c #B30707",
"V 	c #E1CFCF",
"W 	c #F6F6F6",
"X 	c #B6B6B6",
"Y 	c #EAEAEA",
"Z 	c #AEAEAE",
"` 	c #C9C9C9",
" .	c #A3A3A3",
"..	c #DFDFDF",
"+.	c #D0D0D0",
"@.	c #B86464",
"#.	c #900000",
"$.	c #704343",
"%.	c #521010",
"&.	c #0B0B0B",
"*.	c #820000",
"=.	c #C96868",
"-.	c #CBCBCB",
";.	c #D6D6D6",
">.	c #B8B8B8",
",.	c #CECECE",
"'.	c #B1B1B1",
").	c #A8A8A8",
"!.	c #ABABAB",
"~.	c #D3D3D3",
"{.	c #D1D0D0",
"].	c #A62121",
"^.	c #7D0A0A",
"/.	c #6B4949",
"(.	c #240000",
"_.	c #B30A0A",
":.	c #DFD0D0",
"<.	c #C3C3C3",
"[.	c #BBBBBB",
"}.	c #B9B9B9",
"|.	c #B7B7B7",
"1.	c #C0C0C0",
"2.	c #BFBFBF",
"3.	c #D5D5D5",
"4.	c #DEDEDE",
"5.	c #BB8D8D",
"6.	c #940000",
"7.	c #733131",
"8.	c #581B1B",
"9.	c #090909",
"0.	c #8F0000",
"a.	c #B51515",
"b.	c #D3A3A3",
"c.	c #DFD8D8",
"d.	c #DCDCDC",
"e.	c #D2D2D2",
"f.	c #AFAFAF",
"g.	c #929292",
"h.	c #A92F2F",
"i.	c #820404",
"j.	c #6C5353",
"k.	c #2E0000",
"l.	c #AC0606",
"m.	c #B83C3C",
"n.	c #BE7575",
"o.	c #CAADAD",
"p.	c #D2D1D1",
"q.	c #BCBCBC",
"r.	c #C2C2C2",
"s.	c #BD9A9A",
"t.	c #752121",
"u.	c #5F2929",
"v.	c #010000",
"w.	c #A71414",
"x.	c #B04D4D",
"y.	c #B47C7C",
"z.	c #880101",
"A.	c #6F5454",
"B.	c #3D0202",
"C.	c #010101",
"D.	c #3A0000",
"E.	c #791515",
"F.	c #643535",
"G.	c #030303",
"H.	c #030000",
"I.	c #714848",
"J.	c #4B0A0A",
"K.	c #7C0D0D",
"L.	c #674141",
"M.	c #910000",
"N.	c #723636",
"O.	c #531414",
"P.	c #550000",
"Q.	c #800606",
"R.	c #6B4C4C",
"S.	c #939393",
"T.	c #7A7474",
"U.	c #843E3E",
"V.	c #8D2121",
"W.	c #950707",
"X.	c #930000",
"Y.	c #752626",
"Z.	c #5A2020",
"`.	c #A6A6A6",
" +	c #C6C6C6",
".+	c #9C9898",
"++	c #875656",
"@+	c #892E2E",
"#+	c #8F1313",
"$+	c #9E0101",
"%+	c #850202",
"&+	c #6D5050",
"*+	c #323232",
"=+	c #6B6666",
"-+	c #AF9898",
";+	c #C5C3C3",
">+	c #ADADAD",
",+	c #8E7676",
"'+	c #843D3D",
")+	c #8A2121",
"!+	c #910808",
"~+	c #781919",
"{+	c #602D2D",
"]+	c #4A1010",
"^+	c #794646",
"/+	c #9B7676",
"(+	c #B8A9A9",
"_+	c #9F9999",
":+	c #855151",
"<+	c #852C2C",
"[+	c #8B1414",
"}+	c #970303",
"|+	c #9C0202",
"1+	c #900303",
"2+	c #6F4A4A",
"3+	c #400505",
"4+	c #5C1F1F",
"5+	c #845353",
"6+	c #A48484",
"7+	c #BEB6B6",
"8+	c #A6AEA6",
"9+	c #689A68",
"0+	c #807867",
"a+	c #843A3A",
"b+	c #8B1F1F",
"c+	c #910C0C",
"d+	c #9A0505",
"e+	c #950202",
"f+	c #841414",
"g+	c #653939",
"h+	c #370202",
"i+	c #6A2F2F",
"j+	c #8E6161",
"k+	c #4A5B3F",
"l+	c #0E500E",
"m+	c #116311",
"n+	c #308230",
"o+	c #628B62",
"p+	c #A29999",
"q+	c #844C4C",
"r+	c #8A2A2A",
"s+	c #744242",
"t+	c #4B0E0E",
"u+	c #0E470D",
"v+	c #0E520E",
"w+	c #0D490D",
"x+	c #0B410B",
"y+	c #3A4C35",
"z+	c #C5C5C5",
"A+	c #735555",
"B+	c #0F4E0F",
"C+	c #137113",
"D+	c #126C12",
"E+	c #0C4A0C",
"F+	c #140802",
"G+	c #541717",
"H+	c #814D4D",
"I+	c #A37F7F",
"J+	c #5D2323",
"K+	c #0D3A0D",
"L+	c #0F510F",
"M+	c #0E4C0E",
"N+	c #126A12",
"O+	c #126612",
"P+	c #0E490E",
"Q+	c #0E470E",
"                                                                ",
"                                                                ",
"                      . + @ @ #                                 ",
"                    $ % & * = - ; > , '                         ",
"                    ) ! ~ { - ] ; ^ ~ / ( _ # :                 ",
"                  < % [ * = } ; | 1 2 3 ( 4 5 6 7 8 9 0         ",
"                  a b } { - ] | 1 ~ / c d 5 e f 7 g h i j k l   ",
"                m n o * = } ; ^ ~ 2 3 ( 4 e f > p q _ r j @ s   ",
"              t $ u = = - ] v w x y z A 5 6 > 7 g h i j @ B C   ",
"              D n E { - } ; F G H I J K L M N p q _ r O P Q R   ",
"            S S T * = } ; U V W X Y Z `  ...+.@.h i j @ #.$.%.  ",
"            &.n *.{ - ] | =.-.;.>.,.'.).!.~.{.]._ r O P ^./.    ",
"          S . (.* = } ; _.:.<.[.}.|.1.2.3.4.5._ r j @ 6.7.8.    ",
"          9.n 0.{ - ] | a.b.c.d.e.>.f.d.g.[.h.i j O P i.j.      ",
"        t % k.{ - } ; ^ ~ / l.m.n.o.p.q.r.s._ r O P 8 t.u.      ",
"        t v._ = } ] | 1 2 3 ( d 5 6 w.x.y.h.i j @ 8 z.A.B.      ",
"      . C.D.{ - ] | ^ ~ / c d 4 e f 7 g h _ r O P 6.E.F.        ",
"    n G.H.5 = } ; ^ 1 2 3 ( 4 e 6 > p q _ i j @ 8 k I.J.        ",
"    C.n & { - ] | 1 2 / c d 5 6 f 7 g h i j O P 6.K.L.          ",
"  n n ! / = } ; ^ ~ / 3 ( 4 e f 7 p q _ r O @ 8 M.N.O.          ",
"  t n P.= } ] | 1 2 3 c d 5 6 > p g h i j @ 8 6.Q.R.            ",
"  S.T.U.V.W.2 ^ ~ / c d 4 e f 7 g q _ r O P 6.X.Y.Z.            ",
"  `. + +>..+++@+#+$+( 4 5 6 > p q _ i j @ 8 X.%+&+              ",
"  *+=+-+;+ + +<.>+,+'+)+!+p 7 g h i r O P 6., ~+{+              ",
"        ]+^+/+(+ + + +[._+:+<+[+}+|+O @ 8 X.1+2+3+              ",
"                4+5+6+7+ + +8+9+0+a+b+c+d+e+f+g+                ",
"                      h+i+j+k+l+m+n+o+p+q+r+s+t+                ",
"                            u+v+w+x+y+}. +z+A+                  ",
"                          B+C+D+m+E+F+G+H+I+J+                  ",
"                        K+L+M+N+O+                              ",
"                              P+Q+                              ",
"                                                                "};
